<svg width="53" height="43" viewBox="0 0 53 43" fill="none" xmlns="http://www.w3.org/2000/svg">
<g clip-path="url(#clip0_86_172)">
<path d="M53 42.9261V37.5701C44.1374 37.5701 36.9542 30.3812 36.9542 21.5115C36.9542 12.6419 44.1374 5.45288 53 5.45288V0.0969238C41.1802 0.0969238 31.6025 9.68685 31.6025 21.5115C31.6025 33.3362 41.1848 42.9261 53 42.9261Z" fill="url(#paint0_linear_86_172)"/>
<path d="M19.469 0.0969238H14.0389V42.9261H19.469C31.2889 42.9261 40.8665 33.3362 40.8665 21.5115C40.8665 9.68685 31.2842 0.0969238 19.469 0.0969238ZM19.469 37.5701V5.45288C28.3316 5.45288 35.5148 12.6419 35.5148 21.5115C35.5148 30.3812 28.327 37.5701 19.469 37.5701Z" fill="url(#paint1_linear_86_172)"/>
<path d="M26.0986 12.0001C26.0986 11.9955 26.0986 11.9955 26.0986 11.9816C26.0756 5.62837 20.9269 -0.138516 14.3388 0.0046172V0H10.0482H8.68264H5.61005V43H9.72991H10.0529H14.1727C20.5809 42.9584 26.1309 37.5702 26.1079 30.9491C26.1079 30.9445 26.1079 30.9445 26.1079 30.9306C26.094 27.1999 24.3086 23.6724 21.5036 21.4192C24.2763 19.2122 26.1171 15.8139 26.0986 12.0001ZM14.1681 37.7595H10.0482V24.0787H14.1681C23.3674 24.7482 22.7769 37.4963 14.1681 37.7595ZM14.1681 18.8197H10.0482V5.14356H14.3296C23.3582 5.96543 22.7354 18.5104 14.1681 18.8197Z" fill="url(#paint2_linear_86_172)"/>
<path d="M4.03224 25.1498C3.57089 25.6115 2.9619 25.8378 2.35753 25.8378C0.807393 25.8378 0.00464224 24.7527 -0.00458478 23.5153C-0.0184253 22.2871 0.784325 21.1375 2.35753 21.1375C2.9619 21.1375 3.57089 21.3683 4.03224 21.8254L3.78772 22.0332C3.39557 21.6407 2.87425 21.4514 2.35753 21.4514C1.01961 21.4514 0.332201 22.3979 0.336815 23.5015C0.350655 24.5773 1.03345 25.5099 2.35753 25.5099C2.87425 25.5099 3.40019 25.3114 3.79233 24.9236L4.03224 25.1498Z" fill="white"/>
<path d="M11.806 25.787H11.34L9.753 24.0463H8.49812V25.787H8.14288V21.1929C8.81646 21.1929 9.48542 21.1929 10.1636 21.1929C11.1601 21.1929 11.6676 21.9085 11.6722 22.6242C11.6768 23.3722 11.1878 24.0278 10.1821 24.0278L11.806 25.787ZM8.50274 23.7139H10.1313C10.9294 23.7139 11.2847 23.2614 11.2939 22.6196C11.2985 22.0794 10.9341 21.5253 10.1728 21.5253H8.50735V23.7139H8.50274Z" fill="white"/>
<path d="M16.0274 23.3122H18.7171V23.6354H16.0274V25.4453H18.9247V25.787H15.6768V21.1929H18.8462V21.5299H16.0274V23.3122Z" fill="white"/>
<path d="M26.6431 25.787L26.1402 24.6558H23.3998L22.9015 25.787H22.514L24.5716 21.1929H24.9591L27.0168 25.787H26.6431ZM25.9972 24.3279L24.7654 21.5299L23.5336 24.3279H25.9972Z" fill="white"/>
<path d="M31.4457 21.5115H29.7849V21.1975H33.4572V21.5115H31.7963V25.787H31.4411V21.5115H31.4457Z" fill="white"/>
<path d="M37.4156 25.787V21.1929H37.7616V25.787H37.4156Z" fill="white"/>
<path d="M45.8629 21.1929L43.976 25.8008H43.5977L41.7062 21.1929H42.0845L43.7823 25.3945L45.48 21.1929H45.8629Z" fill="white"/>
<path d="M50.1028 23.3122H52.7924V23.6354H50.1028V25.4453H53V25.787H49.7521V21.1929H52.9216V21.5299H50.1028V23.3122Z" fill="white"/>
</g>
<defs>
<linearGradient id="paint0_linear_86_172" x1="53.0005" y1="21.5107" x2="31.6862" y2="21.5107" gradientUnits="userSpaceOnUse">
<stop offset="0.0975" stop-color="#EE8933"/>
<stop offset="0.2131" stop-color="#CB7432"/>
<stop offset="0.4478" stop-color="#7E472C"/>
<stop offset="0.7774" stop-color="#29191C"/>
<stop offset="0.9511" stop-color="#0E0B11"/>
</linearGradient>
<linearGradient id="paint1_linear_86_172" x1="40.8653" y1="21.5107" x2="14.0382" y2="21.5107" gradientUnits="userSpaceOnUse">
<stop offset="0.0975" stop-color="#EE8933"/>
<stop offset="0.2093" stop-color="#CB7432"/>
<stop offset="0.4364" stop-color="#7E472C"/>
<stop offset="0.7551" stop-color="#29191C"/>
<stop offset="0.9232" stop-color="#0E0B11"/>
</linearGradient>
<linearGradient id="paint2_linear_86_172" x1="26.1006" y1="21.5006" x2="5.60594" y2="21.5006" gradientUnits="userSpaceOnUse">
<stop offset="0.0975" stop-color="#EE8933"/>
<stop offset="0.2078" stop-color="#CB7432"/>
<stop offset="0.4318" stop-color="#7E472C"/>
<stop offset="0.7462" stop-color="#29191C"/>
<stop offset="0.912" stop-color="#0E0B11"/>
</linearGradient>
<clipPath id="clip0_86_172">
<rect width="53" height="43" fill="white"/>
</clipPath>
</defs>
</svg>
