<svg width="14" height="13" viewBox="0 0 14 13" fill="none" xmlns="http://www.w3.org/2000/svg">
<path fill-rule="evenodd" clip-rule="evenodd" d="M1.65039 0C0.652719 0 0 0.654894 0 1.51533C0 2.35749 0.633796 3.0313 1.61211 3.0313H1.63104C2.64829 3.0313 3.28078 2.35749 3.28078 1.51533C3.26142 0.654894 2.64828 0 1.65039 0ZM13.6042 7.96965V13H10.6878V8.30678C10.6878 7.12836 10.2667 6.32361 9.21071 6.32361C8.40487 6.32361 7.92615 6.8654 7.71474 7.39001C7.63796 7.5775 7.61817 7.83785 7.61817 8.1008V12.9998H4.70149C4.70149 12.9998 4.74064 5.05101 4.70149 4.22821H7.61839V5.47122C7.61564 5.47581 7.61236 5.48035 7.60912 5.48484L7.60911 5.48485C7.60543 5.48994 7.6018 5.49497 7.59903 5.49993H7.61839V5.47122C8.00597 4.87484 8.69719 4.02224 10.2469 4.02224C12.1657 4.02224 13.6042 5.27591 13.6042 7.96965ZM3.08894 13H0.173348V4.22821H3.08894V13Z" fill="#2A2936"/>
</svg>
