<svg width="342" height="30" viewBox="0 0 342 30" fill="none" xmlns="http://www.w3.org/2000/svg">
<path d="M80.671 5.26452C169.024 -3.06501 247.698 -0.454396 316.647 13.6171C323.787 15.0726 330.537 16.7997 336.482 18.7916C343.252 21.0558 342.876 24.437 336.965 27.0912C331.023 29.7595 322.482 30.3307 313.433 28.9497C293.745 25.9517 274.56 22.5369 253.887 20.2471C197.293 13.9798 135.475 15.8177 72.2107 20.2142C55.0062 21.4128 37.7999 22.2634 20.7349 22.9214C15.3538 23.1237 9.95098 22.4408 5.27779 21.7021C-0.886927 20.7411 -0.74199 18.6053 4.95163 16.6785C9.90228 14.9997 15.8085 13.2892 21.707 12.489C41.2353 9.87534 60.9924 7.64495 80.671 5.26452Z" fill="#EA9A55"/>
</svg>
